<svg width="1512" height="982" viewBox="0 0 1512 982" fill="none" xmlns="http://www.w3.org/2000/svg">
<g clip-path="url(#clip0_3_126)">
<rect width="1512" height="982" fill="white"/>
<path d="M738.328 74.1602V76H729.797V74.1602H738.328ZM730.242 58.9375V76H727.98V58.9375H730.242ZM739.536 69.8008V69.5312C739.536 68.6172 739.668 67.7695 739.934 66.9883C740.2 66.1992 740.583 65.5156 741.083 64.9375C741.583 64.3516 742.188 63.8984 742.899 63.5781C743.61 63.25 744.407 63.0859 745.29 63.0859C746.18 63.0859 746.981 63.25 747.692 63.5781C748.411 63.8984 749.02 64.3516 749.52 64.9375C750.028 65.5156 750.415 66.1992 750.68 66.9883C750.946 67.7695 751.079 68.6172 751.079 69.5312V69.8008C751.079 70.7148 750.946 71.5625 750.68 72.3438C750.415 73.125 750.028 73.8086 749.52 74.3945C749.02 74.9727 748.415 75.4258 747.704 75.7539C747 76.0742 746.204 76.2344 745.313 76.2344C744.422 76.2344 743.622 76.0742 742.911 75.7539C742.2 75.4258 741.59 74.9727 741.083 74.3945C740.583 73.8086 740.2 73.125 739.934 72.3438C739.668 71.5625 739.536 70.7148 739.536 69.8008ZM741.704 69.5312V69.8008C741.704 70.4336 741.778 71.0312 741.926 71.5938C742.075 72.1484 742.297 72.6406 742.594 73.0703C742.899 73.5 743.278 73.8398 743.731 74.0898C744.184 74.332 744.711 74.4531 745.313 74.4531C745.907 74.4531 746.426 74.332 746.872 74.0898C747.325 73.8398 747.7 73.5 747.997 73.0703C748.293 72.6406 748.516 72.1484 748.665 71.5938C748.821 71.0312 748.899 70.4336 748.899 69.8008V69.5312C748.899 68.9062 748.821 68.3164 748.665 67.7617C748.516 67.1992 748.29 66.7031 747.985 66.2734C747.688 65.8359 747.313 65.4922 746.86 65.2422C746.415 64.9922 745.891 64.8672 745.29 64.8672C744.696 64.8672 744.172 64.9922 743.719 65.2422C743.274 65.4922 742.899 65.8359 742.594 66.2734C742.297 66.7031 742.075 67.1992 741.926 67.7617C741.778 68.3164 741.704 68.9062 741.704 69.5312ZM761.532 63.3203H763.501V75.7305C763.501 76.8477 763.274 77.8008 762.821 78.5898C762.368 79.3789 761.735 79.9766 760.923 80.3828C760.118 80.7969 759.188 81.0039 758.134 81.0039C757.696 81.0039 757.181 80.9336 756.587 80.793C756.001 80.6602 755.423 80.4297 754.853 80.1016C754.29 79.7812 753.817 79.3477 753.435 78.8008L754.571 77.5117C755.103 78.1523 755.657 78.5977 756.235 78.8477C756.821 79.0977 757.399 79.2227 757.97 79.2227C758.657 79.2227 759.251 79.0938 759.751 78.8359C760.251 78.5781 760.638 78.1953 760.911 77.6875C761.192 77.1875 761.333 76.5703 761.333 75.8359V66.1094L761.532 63.3203ZM752.802 69.8008V69.5547C752.802 68.5859 752.915 67.707 753.142 66.918C753.376 66.1211 753.708 65.4375 754.138 64.8672C754.575 64.2969 755.103 63.8594 755.72 63.5547C756.337 63.2422 757.032 63.0859 757.806 63.0859C758.603 63.0859 759.298 63.2266 759.892 63.5078C760.493 63.7812 761.001 64.1836 761.415 64.7148C761.837 65.2383 762.169 65.8711 762.411 66.6133C762.653 67.3555 762.821 68.1953 762.915 69.1328V70.2109C762.829 71.1406 762.661 71.9766 762.411 72.7188C762.169 73.4609 761.837 74.0938 761.415 74.6172C761.001 75.1406 760.493 75.543 759.892 75.8242C759.29 76.0977 758.587 76.2344 757.782 76.2344C757.024 76.2344 756.337 76.0742 755.72 75.7539C755.11 75.4336 754.587 74.9844 754.149 74.4062C753.712 73.8281 753.376 73.1484 753.142 72.3672C752.915 71.5781 752.802 70.7227 752.802 69.8008ZM754.97 69.5547V69.8008C754.97 70.4336 755.032 71.0273 755.157 71.582C755.29 72.1367 755.489 72.625 755.755 73.0469C756.028 73.4688 756.376 73.8008 756.798 74.043C757.22 74.2773 757.724 74.3945 758.31 74.3945C759.028 74.3945 759.622 74.2422 760.091 73.9375C760.56 73.6328 760.931 73.2305 761.204 72.7305C761.485 72.2305 761.704 71.6875 761.86 71.1016V68.2773C761.774 67.8477 761.642 67.4336 761.462 67.0352C761.29 66.6289 761.063 66.2695 760.782 65.957C760.509 65.6367 760.169 65.3828 759.763 65.1953C759.356 65.0078 758.88 64.9141 758.333 64.9141C757.739 64.9141 757.228 65.0391 756.798 65.2891C756.376 65.5312 756.028 65.8672 755.755 66.2969C755.489 66.7188 755.29 67.2109 755.157 67.7734C755.032 68.3281 754.97 68.9219 754.97 69.5547ZM768.669 63.3203V76H766.49V63.3203H768.669ZM766.326 59.957C766.326 59.6055 766.431 59.3086 766.642 59.0664C766.861 58.8242 767.181 58.7031 767.603 58.7031C768.017 58.7031 768.333 58.8242 768.552 59.0664C768.779 59.3086 768.892 59.6055 768.892 59.957C768.892 60.293 768.779 60.582 768.552 60.8242C768.333 61.0586 768.017 61.1758 767.603 61.1758C767.181 61.1758 766.861 61.0586 766.642 60.8242C766.431 60.582 766.326 60.293 766.326 59.957ZM773.838 66.0273V76H771.67V63.3203H773.721L773.838 66.0273ZM773.322 69.1797L772.42 69.1445C772.428 68.2773 772.557 67.4766 772.807 66.7422C773.057 66 773.408 65.3555 773.861 64.8086C774.314 64.2617 774.853 63.8398 775.478 63.543C776.111 63.2383 776.81 63.0859 777.576 63.0859C778.201 63.0859 778.764 63.1719 779.264 63.3438C779.764 63.5078 780.189 63.7734 780.541 64.1406C780.9 64.5078 781.174 64.9844 781.361 65.5703C781.549 66.1484 781.643 66.8555 781.643 67.6914V76H779.463V67.668C779.463 67.0039 779.365 66.4727 779.17 66.0742C778.975 65.668 778.689 65.375 778.314 65.1953C777.939 65.0078 777.478 64.9141 776.932 64.9141C776.393 64.9141 775.9 65.0273 775.455 65.2539C775.018 65.4805 774.639 65.793 774.318 66.1914C774.006 66.5898 773.76 67.0469 773.58 67.5625C773.408 68.0703 773.322 68.6094 773.322 69.1797Z" fill="white"/>
<path d="M-1 0H1511V982H-1V0Z" fill="white"/>
<path d="M1512 0H-1V663C53.3756 629.224 288.55 574.539 794.243 626.007C1299.94 677.475 1483.45 633.513 1512 605.099L1512 0Z" fill="#EAB354"/>
</g>
<defs>
<clipPath id="clip0_3_126">
<rect width="1512" height="982" fill="white"/>
</clipPath>
</defs>
</svg>
